<svg id="Layer_1" data-name="Layer 1" xmlns="http://www.w3.org/2000/svg" viewBox="0 0 17 12"><defs><style>.cls-1{isolation:isolate;}.cls-2{fill:#76b900;}</style></defs><title>icon-check</title><g class="cls-1"><path class="cls-2" d="M1.12,6.52A.78.78,0,0,1,.91,6a.75.75,0,0,1,.21-.55L2.26,4.3a.69.69,0,0,1,.54-.25.75.75,0,0,1,.57.25L6.83,7.75,14.22.35a.81.81,0,0,1,.57-.24.68.68,0,0,1,.54.24l1.14,1.11a.75.75,0,0,1,.22.56.72.72,0,0,1-.22.55L7.38,11.63a.68.68,0,0,1-.55.25.7.7,0,0,1-.56-.25Z"/></g></svg>